<?xml version="1.0" standalone="no"?><!DOCTYPE svg PUBLIC "-//W3C//DTD SVG 1.1//EN" "http://www.w3.org/Graphics/SVG/1.1/DTD/svg11.dtd"><svg class="icon" width="200px" height="200.00px" viewBox="0 0 1024 1024" version="1.1" xmlns="http://www.w3.org/2000/svg"><path fill="#fafaf2" d="M287.352397 379.715632c-5.844592 0-11.63795-2.536541-15.609018-7.42679-6.994825-8.614193-5.681851-21.26676 2.931337-28.26259l211.286312-171.567599c8.614193-6.994825 21.26676-5.681851 28.261584 2.931337s5.681851 21.26676-2.931337 28.261585L300.004964 375.221183a20.015065 20.015065 0 0 1-12.652567 4.494449zM715.403948 379.715632c-5.843587 0-11.636946-2.536541-15.609018-7.42679-6.994825-8.614193-5.681851-21.26676 2.931337-28.26259l211.286312-171.567599c8.614193-6.994825 21.26676-5.681851 28.261584 2.931337s5.681851 21.26676-2.931337 28.261585L728.05752 375.221183a20.015065 20.015065 0 0 1-12.653572 4.494449z"  /><path fill="#fafaf2" d="M710.645297 375.902282a20.001001 20.001001 0 0 1-12.576219-4.434175L489.226887 203.572214c-8.648348-6.952633-10.022601-19.599172-3.069968-28.247521 6.952633-8.648348 19.599172-10.022601 28.247521-3.069968l208.842191 167.895894c8.648348 6.952633 10.022601 19.599172 3.069968 28.247521-3.970063 4.937464-9.795568 7.504142-15.671302 7.504142zM955.510386 175.483415a20.181823 20.181823 0 0 1-3.599377-0.324476l-161.472669-29.211909c-10.918678-1.974986-18.168664-12.428547-16.193678-23.347225 1.974986-10.918678 12.429552-18.168664 23.347225-16.193678L959.063552 135.617031c10.919682 1.97599 18.169668 12.428547 16.193678 23.34823-1.755989 9.709175-10.216483 16.518154-19.746844 16.518154z"  /><path fill="#fafaf2" d="M963.048683 355.984661c-10.793107 0-19.713693-8.568987-20.069311-19.436432l-5.276005-161.469656c-0.36265-11.090459 8.333918-20.374701 19.424377-20.737351 11.094478-0.358632 20.374701 8.333918 20.737351 19.424378l5.276005 161.469655c0.36265 11.090459-8.333918 20.374701-19.424377 20.737351-0.224019 0.008037-0.447034 0.012055-0.66804 0.012055zM305.175489 773.896076H129.740293c-11.096487 0-20.091412-8.994925-20.091412-20.091412s8.994925-20.091412 20.091412-20.091412h175.435196c11.095482 0 20.091412 8.994925 20.091412 20.091412s-8.994925 20.091412-20.091412 20.091412z"  /><path fill="#fafaf2" d="M217.457389 937.723459c-11.096487 0-20.091412-8.994925-20.091412-20.091412V740.248988c0-11.095482 8.994925-20.091412 20.091412-20.091412s20.091412 8.99593 20.091412 20.091412v177.383059c0 11.096487-8.994925 20.091412-20.091412 20.091412z"  /><path fill="#fafaf2" d="M304.978593 837.138818H129.936184c-11.095482 0-20.091412-8.99593-20.091412-20.091412s8.99593-20.091412 20.091412-20.091412h175.043414c11.096487 0 20.091412 8.99593 20.091412 20.091412s-8.99593 20.091412-20.092417 20.091412zM221.841335 761.695566a20.011046 20.011046 0 0 1-13.245264-4.990707l-62.752511-55.071565c-8.339945-7.319301-9.167711-20.01406-1.84841-28.354005s20.013055-9.167711 28.354005-1.84841l62.752512 55.07257c8.339945 7.319301 9.167711 20.01406 1.84841 28.354005-3.972072 4.525591-9.527348 6.838112-15.108742 6.838112z"  /><path fill="#fafaf2" d="M217.967711 761.695566a20.046206 20.046206 0 0 1-15.109747-6.839117c-7.319301-8.339945-6.490531-21.033699 1.84841-28.354005l62.753516-55.072569c8.339945-7.319301 21.033699-6.491535 28.354005 1.84841s6.491535 21.033699-1.848409 28.354005l-62.753517 55.071565a20.00301 20.00301 0 0 1-13.244258 4.991711zM530.045604 790.687474c-11.096487 0-20.091412-8.99593-20.091412-20.091412V470.121963c0-11.096487 8.994925-20.091412 20.091412-20.091412s20.091412 8.994925 20.091412 20.091412V770.596062c0 11.096487-8.994925 20.091412-20.091412 20.091412zM727.302082 790.687474c-11.096487 0-20.091412-8.99593-20.091412-20.091412V615.339675c0-11.096487 8.994925-20.091412 20.091412-20.091412s20.091412 8.994925 20.091412 20.091412v155.256387c0 11.096487-8.994925 20.091412-20.091412 20.091412zM924.556552 790.687474c-11.095482 0-20.091412-8.99593-20.091412-20.091412V470.121963c0-11.096487 8.99593-20.091412 20.091412-20.091412s20.091412 8.994925 20.091412 20.091412V770.596062c0 11.096487-8.99593 20.091412-20.091412 20.091412z"  /><path fill="#fafaf2" d="M223.103075 992.637306c-109.560479 0-198.694019-89.134545-198.694019-198.695024s89.13354-198.694019 198.694019-198.694019c109.561483 0 198.696028 89.134545 198.696029 198.694019 0 109.561483-89.134545 198.695024-198.696029 198.695024z m0-357.206219c-87.40367 0-158.511195 71.107525-158.511195 158.511195 0 87.40367 71.107525 158.5122 158.511195 158.5122s158.513204-71.10853 158.513205-158.5122-71.109534-158.511195-158.513205-158.511195zM223.10408 573.072367c-11.095482 0-20.091412-8.994925-20.091412-20.091412V62.028216c0-11.095482 8.99593-20.091412 20.091412-20.091412s20.091412 8.99593 20.091412 20.091412v490.952739c0 11.096487-8.99593 20.091412-20.091412 20.091412zM985.830335 898.674795H458.808489c-11.095482 0-20.091412-8.994925-20.091412-20.091412s8.99593-20.091412 20.091412-20.091412h527.022851c11.096487 0 20.091412 8.994925 20.091412 20.091412s-8.99593 20.091412-20.092417 20.091412z"  /></svg>