<?xml version="1.0" standalone="no"?><!DOCTYPE svg PUBLIC "-//W3C//DTD SVG 1.1//EN" "http://www.w3.org/Graphics/SVG/1.1/DTD/svg11.dtd"><svg class="icon" width="200px" height="200.00px" viewBox="0 0 1024 1024" version="1.1" xmlns="http://www.w3.org/2000/svg"><path fill="#fafaf2" d="M770.714831 959.25644 244.333286 959.25644c-43.549865 0-78.993099-35.438117-78.993099-78.926584L165.340187 143.321196c0-43.48949 35.443233-78.949097 78.993099-78.949097l526.381545 0c43.552935 0 78.995145 35.46063 78.995145 78.949097l0 737.00866C849.709977 923.819346 814.267766 959.25644 770.714831 959.25644L770.714831 959.25644zM244.333286 117.021204c-14.517645 0-26.315342 11.834536-26.315342 26.301016l0 737.00866c0 14.557554 11.797697 26.301016 26.315342 26.301016l526.381545 0c14.517645 0 26.318412-11.744485 26.318412-26.301016L797.033243 143.321196c0-14.465456-11.800767-26.301016-26.318412-26.301016L244.333286 117.02018 244.333286 117.021204zM725.708801 407.740448 289.339316 407.740448c-26.121937 0-47.385217-22.332634-47.385217-49.718355L241.954099 225.870284c0-27.477818 21.263279-49.718355 47.385217-49.718355l436.369485 0c26.121937 0 47.388287 22.240537 47.388287 49.718355l0 132.151809C773.096065 385.407814 751.830739 407.740448 725.708801 407.740448L725.708801 407.740448zM294.582737 355.092367l425.883667 0L720.466404 228.777497 294.582737 228.777497 294.582737 355.092367 294.582737 355.092367zM400.957463 607.282087c0 11.535731-9.467629 20.971637-21.072945 20.971637l-90.545202 0c-11.605316 0-21.069875-9.435906-21.069875-20.971637l0-90.600461c0-11.650341 9.464559-21.063735 21.069875-21.063735l90.545202 0c11.604292 0 21.072945 9.413394 21.072945 21.063735L400.957463 607.282087 400.957463 607.282087zM577.001945 607.282087c0 11.535731-9.41851 20.971637-21.023826 20.971637l-90.548272 0c-11.651364 0-21.069875-9.435906-21.069875-20.971637l0-90.600461c0-11.650341 9.41851-21.063735 21.069875-21.063735l90.548272 0c11.605316 0 21.023826 9.413394 21.023826 21.063735L577.001945 607.282087 577.001945 607.282087zM746.783793 607.282087c0 11.535731-9.41851 20.971637-21.076014 20.971637l-90.543156 0c-11.605316 0-21.069875-9.435906-21.069875-20.971637l0-90.600461c0-11.650341 9.464559-21.063735 21.069875-21.063735l90.543156 0c11.657504 0 21.076014 9.413394 21.076014 21.063735L746.783793 607.282087 746.783793 607.282087zM400.957463 806.710139c0 11.651364-9.467629 21.086248-21.072945 21.086248l-90.545202 0c-11.605316 0-21.069875-9.435906-21.069875-21.086248l0-90.485851c0-11.651364 9.464559-21.063735 21.069875-21.063735l90.545202 0c11.604292 0 21.072945 9.41237 21.072945 21.063735L400.957463 806.710139 400.957463 806.710139zM577.001945 806.710139c0 11.651364-9.41851 21.086248-21.023826 21.086248l-90.548272 0c-11.651364 0-21.069875-9.435906-21.069875-21.086248l0-90.485851c0-11.651364 9.41851-21.063735 21.069875-21.063735l90.548272 0c11.605316 0 21.023826 9.41237 21.023826 21.063735L577.001945 806.710139 577.001945 806.710139zM746.783793 806.710139c0 11.651364-9.41851 21.086248-21.076014 21.086248l-90.543156 0c-11.605316 0-21.069875-9.435906-21.069875-21.086248l0-90.485851c0-11.651364 9.464559-21.063735 21.069875-21.063735l90.543156 0c11.657504 0 21.076014 9.41237 21.076014 21.063735L746.783793 806.710139 746.783793 806.710139zM746.783793 806.710139" /></svg>