<?xml version="1.0" standalone="no"?><!DOCTYPE svg PUBLIC "-//W3C//DTD SVG 1.1//EN" "http://www.w3.org/Graphics/SVG/1.1/DTD/svg11.dtd"><svg class="icon" width="200px" height="200.00px" viewBox="0 0 1024 1024" version="1.1" xmlns="http://www.w3.org/2000/svg"><path fill="#fafaf2" d="M767.904036 127.952018l-63.976009 0 0-95.964013c0-17.721354-14.330626-31.988004-31.988004-31.988004S639.952018 14.26665 639.952018 31.988004l0 95.964013L320.071973 127.952018l0-95.964013c0-17.721354-14.330626-31.988004-31.988004-31.988004S256.095964 14.26665 256.095964 31.988004l0 95.964013L192.119955 127.952018c-70.629514 0-127.952018 57.258528-127.952018 127.952018l0 639.76009c0 70.629514 57.322504 127.952018 127.952018 127.952018l575.784081 0c70.629514 0 127.952018-57.322504 127.952018-127.952018l0-639.76009C895.856054 185.210546 838.53355 127.952018 767.904036 127.952018zM831.880045 895.664126c0 35.378733-28.597276 63.976009-63.976009 63.976009L192.119955 959.640135c-35.378733 0-63.976009-28.597276-63.976009-63.976009l0-639.76009c0-35.378733 28.597276-63.976009 63.976009-63.976009l575.784081 0c35.378733 0 63.976009 28.597276 63.976009 63.976009L831.880045 895.664126zM696.762714 307.020867c12.091466-12.091466 12.091466-31.860052 0-44.015494s-31.7321-12.091466-43.951518 0L479.564163 436.316381l-171.391728-171.455704c-11.963514-11.899538-31.156316-11.899538-43.055854 0s-11.899538 31.09234 0 42.991878L448.023991 490.823941l0 20.984131L288.083969 511.808072c-17.657378 0-31.988004 14.26665-31.988004 31.988004 0 17.593402 14.330626 31.988004 31.988004 31.988004L448.023991 575.784081l0 127.952018L288.083969 703.736099c-17.657378 0-31.988004 14.26665-31.988004 31.988004 0 17.593402 14.330626 31.988004 31.988004 31.988004L448.023991 767.712108l0 95.964013c0 17.593402 14.330626 31.988004 31.988004 31.988004S512 881.3335 512 863.676121l0-95.964013 159.940022 0c17.657378 0 31.988004-14.394602 31.988004-31.988004 0-17.721354-14.330626-31.988004-31.988004-31.988004L512 703.736099l0-127.952018 159.940022 0c17.657378 0 31.988004-14.394602 31.988004-31.988004 0-17.721354-14.330626-31.988004-31.988004-31.988004L512 511.808072 512 491.719605 696.762714 307.020867z" /></svg>