<?xml version="1.0" standalone="no"?><!DOCTYPE svg PUBLIC "-//W3C//DTD SVG 1.1//EN" "http://www.w3.org/Graphics/SVG/1.1/DTD/svg11.dtd"><svg class="icon" width="200px" height="200.00px" viewBox="0 0 1024 1024" version="1.1" xmlns="http://www.w3.org/2000/svg"><path fill="#fafaf2" d="M52.82816 286.61248h201.38496c13.65504-81.92 40.96-157.01504 78.50496-228.69504-109.21984 40.96512-225.27488 122.88512-279.88992 228.69504z m180.02432-25.6H98.20672c46.01856-65.8432 115.37408-117.21728 181.67296-151.5264-21.38112 50.13504-36.92544 100.25472-47.0272 151.5264zM387.33824 45.33248c-37.54496 75.09504-64.85504 157.01504-81.92 238.93504h180.90496v-256c-34.13504 0-64.85504 6.82496-98.98496 17.06496z m73.38496 213.33504H337.38752c16.32768-67.98336 39.1168-132.36736 67.94752-191.9232 17.3824-4.92544 35.77856-9.28256 55.38816-11.4432v203.3664zM691.11808 57.92256c37.55008 71.68 64.84992 150.18496 78.51008 228.69504h201.37984c-54.60992-105.81504-170.65984-187.73504-279.88992-228.69504z m52.48 51.3792c66.40128 34.304 135.936 85.75488 182.03136 151.71584H790.8352c-10.39872-50.88256-26.39872-102.21056-47.23712-151.71584zM636.50816 47.68256c-34.14016-10.24-64.86016-17.06496-98.99008-17.06496v256h177.48992c-13.64992-81.92512-40.96-163.84512-78.49984-238.93504z m-73.39008 9.96864c19.60448 2.15552 38.00576 6.51264 55.38816 11.43808 29.71136 61.4656 52.13696 127.08864 65.65376 191.9232h-121.04704V57.6512zM254.21824 739.73248H52.82816c54.61504 105.80992 170.66496 187.72992 279.89504 228.68992-37.54496-71.67488-64.85504-150.17984-78.50496-228.68992z m-156.01152 25.6h134.79936c10.3936 50.87744 26.39872 102.20032 47.23712 151.71072-66.40128-34.30912-135.93088-85.75488-182.03648-151.71072zM438.53824 739.73248H308.82816c17.06496 81.92 44.37504 163.84 81.92 238.92992 30.72 10.24 61.44 17.07008 95.57504 17.07008v-256h-47.78496z m22.18496 228.98688c-16.41984-1.82272-33.24416-5.4528-51.8144-11.12576-28.90752-59.648-51.75296-124.14976-68.11136-192.26624h119.92576v203.392zM769.62816 739.73248c-13.66016 81.92-40.96 157.00992-78.51008 228.68992 109.23008-40.96 225.28-126.28992 279.88992-228.68992h-201.37984z m-25.61024 176.9728c21.3504-50.0736 36.87424-100.15232 46.97088-151.3728h133.82656c-42.2144 58.53184-107.2896 112.90624-180.79744 151.3728zM585.30816 739.73248h-47.79008v256c34.12992 0 64.84992-6.83008 98.99008-17.07008 37.53984-75.08992 64.84992-157.00992 81.92-238.92992h-133.12z m33.20832 217.51808c-17.39264 4.93056-35.7888 9.28256-55.39328 11.4432v-203.3664h123.3408c-16.33792 67.98848-39.12192 132.36736-67.94752 191.9232zM279.31648 637.78816c-9.33888 0-18.59072-5.22752-28.2624-15.9488L97.77152 445.27104v169.9328c0 6.784-2.93376 22.58432-30.01856 22.58432-26.55744 0-29.42976-15.80032-29.42976-22.58432V376.48896c0-6.6816 2.87744-22.22592 29.42976-22.22592 10.03008 0 19.75808 5.26336 28.91776 15.66208l153.22624 176.17408V376.48896c0-6.6816 2.87744-22.22592 29.41952-22.22592 27.10528 0 30.03904 15.54432 30.03904 22.22592v238.71488c0.00512 6.784-2.93376 22.58432-30.03904 22.58432zM379.6736 631.7824c-29.81888 0-34.26816-14.14656-34.26816-22.54336V381.7728c0-8.42752 4.45952-22.58432 34.26816-22.58432h200.87808c28.76928 0 25.39008 19.6608 25.39008 27.17696 0 7.3728 3.3792 26.81856-25.39008 26.81856H414.12608c-4.21888 0-9.25696 0.4864-9.25696 2.816v51.44064h158.36672c28.30848 0 34.24256 17.80736 34.24256 26.81344 0 9.0112-5.93408 26.81344-34.24256 26.81344H404.86912v53.9136c0 0.86528 0 3.15392 9.25696 3.15392h166.43584c28.76416 0 25.39008 19.44576 25.39008 26.81856 0 7.36256 3.37408 26.79808-25.39008 26.79808H379.6736v0.03072zM899.27168 630.72256c-10.30656 0-23.42912-2.76992-27.42784-15.91296l-50.24256-161.10592-50.97472 161.08544c-3.99872 13.184-17.1264 15.93344-27.43808 15.93344-10.67008 0-24.23808-2.76992-28.23168-15.91296l-67.47136-225.3312c-3.32288-11.35616-3.80928-13.83424-3.87072-14.37184 0-11.99104 16.68096-13.77792 26.60352-13.77792 19.12832 0 30.82752 5.00224 32.896 14.07488l40.33024 159.37024 49.95072-157.8496c3.98336-12.88704 17.55648-15.5904 28.2368-15.5904 10.67008 0 24.21248 2.70336 28.2112 15.58016l40.70912 130.51392 14.82752-0.47104 30.80704-131.54304c2.0736-9.09312 13.76256-14.08 32.91136-14.08 9.9328 0 26.58304 1.792 26.58304 13.75744-0.1536 1.09568-2.74432 10.4448-3.86048 14.42816l-64.32256 225.31072c-3.9936 13.11744-17.55648 15.89248-28.22656 15.89248z" /></svg>