<?xml version="1.0" standalone="no"?><!DOCTYPE svg PUBLIC "-//W3C//DTD SVG 1.1//EN" "http://www.w3.org/Graphics/SVG/1.1/DTD/svg11.dtd"><svg class="icon" width="200px" height="200.00px" viewBox="0 0 1024 1024" version="1.1" xmlns="http://www.w3.org/2000/svg"><path fill="#fafaf2" d="M101.854782 65.654302l0.765433 0 594.569554 0c19.004843 0 34.610262 15.357779 34.610262 34.632775l0 0.517793 0 79.264275 129.321344 0c26.346041 0 50.260707 10.741645 67.577095 28.305673 17.316387 17.089214 28.058033 41.478693 28.058033 67.577095l0 264.723174c0 26.571169-10.741645 50.733475-28.058033 68.072375-17.316387 17.314341-41.231053 28.5308-67.577095 28.5308L642.514519 637.278261l-41.973974 63.433728c-6.350638 9.524934-19.004843 12.18246-28.28316 6.349615-2.432399-1.961678-4.391007-4.143367-6.124488-6.349615l-42.176588-63.906495c-23.441898-1.981121-44.405349-12.227486-60.010769-28.058033-17.58654-17.3389-28.305673-41.501206-28.305673-68.072375L435.639868 275.950889c0-26.098401 10.719132-50.487881 28.305673-67.577095 17.046235-17.564028 40.960901-28.305673 67.329455-28.305673l131.73123 0 0-45.62206L136.037303 134.446062l0 756.812705 526.969946 0L663.007249 733.158982c0-18.779715 15.60542-34.385135 34.18252-34.385135 19.004843 0 34.610262 15.60542 34.610262 34.385135l0 192.507432c0 18.779715-15.60542 34.385135-34.610262 34.385135l-1.013073 0L101.854782 960.051549c-19.004843 0-34.610262-15.60542-34.610262-34.385135l0-0.74292L67.24452 100.287077C67.243497 81.011059 82.848916 65.654302 101.854782 65.654302L101.854782 65.654302zM861.121376 221.546815 861.121376 221.546815 531.274996 221.546815c-14.636349 0-28.305673 6.101975-38.551014 16.1007-9.772574 9.524934-15.875572 23.441898-15.875572 38.303374l0 264.723174c0 15.355733 6.101975 29.02608 15.875572 38.798655 10.245342 9.997702 23.914666 16.325827 38.551014 16.325827l4.143367 0 0 0c6.598278 0 13.173021 3.175319 17.316387 9.029654l30.489408 47.085388 30.264281-45.351907c3.648087-6.847965 10.245342-10.763135 18.284435-10.763135l229.347478 0c14.883989 0 28.77844-6.327102 38.303374-16.325827 10.020214-9.772574 16.34834-23.443945 16.34834-38.798655L915.772067 275.950889c0-14.861476-6.327102-28.77844-16.34834-38.303374C889.899816 227.649813 876.005364 221.546815 861.121376 221.546815L861.121376 221.546815zM571.515488 432.339706 571.515488 432.339706c-0.968048-0.49528-1.215688-1.463328-2.206248-2.432399-35.600823-36.614919-34.610262-89.059362-1.936095-125.155465 33.664727-35.623335 88.316441-42.694381 128.803551-11.236925 40.532135-31.457456 95.161337-24.387433 128.848577 11.236925 33.889855 36.840046 32.921807 90.027409-2.927679 126.124536l-1.013073 0.968048L710.339254 537.995047c-7.813966 7.791453-20.491707 7.791453-28.553313 0L571.515488 432.339706 571.515488 432.339706zM600.316441 402.593218 600.316441 402.593218l95.860255 91.716888 96.648201-92.212168 0 0 0 0c20.469194-20.739347 20.941961-48.796356 1.936095-69.062935-20.018939-21.212114-51.228755-25.107841-75.143421-5.584182l-2.206248 1.688455c-13.420661 9.772574-31.953759 9.029654-45.149293-1.936095l-0.720408-0.270153c-23.644513-19.004843-54.404074-14.636349-73.408917 6.101975-19.049868 20.018939-19.771299 47.828308 1.440815 69.062935L600.316441 402.593218 600.316441 402.593218zM283.890722 833.185116 283.890722 833.185116c-11.236925 0-20.514219-9.007141-20.514219-20.716834 0-11.216459 9.277294-20.739347 20.514219-20.739347l230.788294 0c11.709693 0 20.739347 9.522887 20.739347 20.739347 0 11.709693-9.029654 20.716834-20.739347 20.716834L283.890722 833.185116 283.890722 833.185116z" /></svg>